<?xml version="1.0" encoding="UTF-8"?>
<svg id="Layer_1" xmlns="http://www.w3.org/2000/svg" version="1.1" viewBox="0 0 107.399 127.131">
  <!-- Generator: Adobe Illustrator 30.4.0, SVG Export Plug-In . SVG Version: 2.1.4 Build 226)  -->
  <g>
    <circle cx="53.699" cy="47.891" r="46.618" style="fill: #fffef8;"/>
    <g>
      <path d="M33.523,56.036H14.847c2.58,11.974,10.709,21.919,21.604,27.109v-31.779l-2.928,4.669Z" style="fill: #19afb2;"/>
      <path d="M81.494,56.334l-7.192-10.869-7.553,14.613-10.93-29.917-10.376,47.882,2.911,8.635c1.749.232,3.533.353,5.346.353,18.988,0,34.855-13.139,38.784-30.697h-10.99Z" style="fill: #19afb2;"/>
      <path d="M13.973,47.859c0,1.316.068,2.616.197,3.899h16.934l6.536-10.425,6.891,20.442,10.22-47.162-2.155-5.898c-21.429.578-38.623,17.875-38.623,39.144Z" style="fill: #19afb2;"/>
      <path d="M67.434,11.094v38.237l6.406-12.393,10.004,15.118h9.354c.149-1.379.23-2.778.23-4.196,0-16.874-10.821-31.254-25.993-36.766Z" style="fill: #19afb2;"/>
      <path d="M83.843,52.055l-10.004-15.118-6.406,12.393-12.682-34.717-10.22,47.162-6.891-20.442-6.536,10.425H14.17c.145,1.451.375,2.878.676,4.278h18.676l2.928-4.669,8.992,26.676,10.376-47.882,10.93,29.917,7.553-14.613,7.192,10.869h10.99c.313-1.4.556-2.826.713-4.278h-9.354Z" style="fill: #047070;"/>
    </g>
  </g>
  <g>
    <path d="M24.084,106.554l-.065,16.973-5.974-.023.102-26.495,6.676.026,11.601,16.947h.07l.065-14.323,5.974,1.4-.102,22.539-6.676-.025-11.601-17.018h-.07Z"/>
    <path d="M55.396,124.21c-1.406-.006-2.711-.252-3.916-.736s-2.245-1.15-3.12-1.997c-.875-.848-1.563-1.839-2.062-2.978-.5-1.138-.746-2.362-.741-3.675.005-1.312.261-2.534.77-3.669.508-1.134,1.203-2.122,2.084-2.962.882-.84,1.927-1.498,3.135-1.974,1.208-.475,2.516-.71,3.922-.704,1.405.005,2.71.25,3.915.734,1.204.485,2.244,1.151,3.119,1.997.876.848,1.562,1.84,2.062,2.978.499,1.139.746,2.363.741,3.675-.005,1.312-.262,2.535-.77,3.669-.509,1.135-1.203,2.122-2.085,2.962-.882.841-1.927,1.499-3.135,1.974-1.209.475-2.516.711-3.921.706ZM55.416,118.868c1.124.004,2.039-.372,2.745-1.132.705-.758,1.061-1.712,1.065-2.86.004-1.147-.344-2.104-1.043-2.867-.7-.764-1.612-1.148-2.736-1.152-1.125-.005-2.041.372-2.746,1.132-.706.758-1.061,1.712-1.065,2.859-.004,1.148.343,2.104,1.043,2.868s1.612,1.147,2.737,1.152Z"/>
    <path d="M77.484,118.952c.608.003,1.177-.094,1.705-.292.528-.196.992-.47,1.392-.819l-.021,5.692c-1.221.51-2.487.764-3.799.759-1.358-.006-2.617-.252-3.774-.735-1.157-.484-2.163-1.15-3.015-1.997s-1.516-1.839-1.991-2.978c-.477-1.138-.711-2.362-.706-3.675.005-1.312.249-2.534.734-3.669.484-1.134,1.156-2.121,2.014-2.962.858-.84,1.869-1.498,3.03-1.974s2.422-.711,3.78-.705c1.312.005,2.576.268,3.793.787l-.022,5.693c-.396-.354-.858-.631-1.386-.832-.526-.201-1.094-.303-1.702-.306-1.219-.004-2.216.373-2.991,1.132-.776.758-1.167,1.711-1.171,2.858-.005,1.148.378,2.105,1.148,2.869.77.765,1.764,1.148,2.982,1.152Z"/>
    <path d="M86.959,103.845c-.47-.002-.902-.092-1.3-.27-.398-.177-.749-.418-1.051-.725-.304-.305-.543-.657-.717-1.057-.175-.398-.261-.833-.259-1.302.002-.444.091-.871.269-1.281.178-.409.419-.766.725-1.069.305-.302.657-.541,1.057-.716.399-.174.832-.26,1.302-.258.444,0,.872.091,1.281.269.408.177.765.419,1.068.724.304.306.543.664.717,1.075.174.41.261.839.259,1.283-.002.469-.092.901-.269,1.3-.178.397-.419.748-.725,1.051-.307.304-.665.542-1.074.717-.411.174-.839.26-1.283.259ZM89.901,106.209l-.067,17.57-5.903-.022.067-17.57,5.903.022Z"/>
  </g>
</svg>